<svg data-v-423bf9ae="" xmlns="http://www.w3.org/2000/svg" viewBox="0 0 320.89199437466505 60" class="font"><!----><!----><!----><g data-v-423bf9ae="" id="b5050786-9cca-464f-b51b-c7ac7627193e" fill="white" transform="matrix(4.694835428506443,0,0,4.694835428506443,-4.600936374470734,-9.67136119091979)"><path d="M0.98 12.29L0.98 2.69L4.84 2.69L4.84 2.69Q6.23 2.69 6.97 3.41L6.97 3.41L6.97 3.41Q7.71 4.13 7.71 5.35L7.71 5.35L7.71 5.35Q7.71 6.24 7.27 6.90L7.27 6.90L7.27 6.90Q6.82 7.56 6.01 7.83L6.01 7.83L7.94 12.29L6.57 12.29L4.79 8.05L2.21 8.05L2.21 12.29L0.98 12.29ZM2.21 6.93L4.80 6.93L4.80 6.93Q5.53 6.93 5.98 6.50L5.98 6.50L5.98 6.50Q6.43 6.06 6.43 5.35L6.43 5.35L6.43 5.35Q6.43 4.62 6.01 4.21L6.01 4.21L6.01 4.21Q5.59 3.81 4.80 3.81L4.80 3.81L2.21 3.81L2.21 6.93ZM8.99 3.54L8.99 2.17L10.14 2.17L10.14 3.54L8.99 3.54ZM8.99 12.29L8.99 4.93L10.14 4.93L10.14 12.29L8.99 12.29ZM13.86 12.46L13.86 12.46Q12.56 12.46 11.95 11.53L11.95 11.53L11.95 11.53Q11.34 10.60 11.34 8.61L11.34 8.61L11.34 8.61Q11.34 6.62 11.96 5.69L11.96 5.69L11.96 5.69Q12.57 4.76 13.86 4.76L13.86 4.76L13.86 4.76Q15.04 4.76 15.57 5.49L15.57 5.49L15.57 5.49Q16.11 6.22 16.11 7.66L16.11 7.66L14.92 7.66L14.92 7.66Q14.92 6.66 14.69 6.22L14.69 6.22L14.69 6.22Q14.46 5.78 13.86 5.78L13.86 5.78L13.86 5.78Q13.19 5.78 12.87 6.42L12.87 6.42L12.87 6.42Q12.54 7.06 12.54 8.34L12.54 8.34L12.54 8.88L12.54 8.88Q12.54 10.16 12.86 10.80L12.86 10.80L12.86 10.80Q13.17 11.44 13.86 11.44L13.86 11.44L13.86 11.44Q14.46 11.44 14.72 10.98L14.72 10.98L14.72 10.98Q14.98 10.51 14.98 9.56L14.98 9.56L16.11 9.56L16.11 9.56Q16.11 10.82 15.56 11.64L15.56 11.64L15.56 11.64Q15.01 12.46 13.86 12.46L13.86 12.46ZM17.42 12.29L17.42 2.17L18.56 2.17L18.56 8.34L20.94 4.93L22.22 4.93L20.05 7.95L22.33 12.29L21.03 12.29L19.35 8.93L18.56 9.79L18.56 12.29L17.42 12.29ZM23.67 14.84L23.67 14.84Q23.17 14.84 22.85 14.73L22.85 14.73L22.85 13.93L23.25 13.93L23.25 13.93Q24.36 13.93 24.71 12.29L24.71 12.29L22.46 4.93L23.72 4.93L24.96 9.32L25.34 10.64L25.40 10.64L25.72 9.30L26.77 4.93L27.93 4.93L26.05 11.91L26.05 11.91Q25.69 13.29 25.13 14.06L25.13 14.06L25.13 14.06Q24.57 14.84 23.67 14.84L23.67 14.84ZM32.16 12.29L32.16 2.69L35.80 2.69L35.80 2.69Q36.88 2.69 37.58 3.34L37.58 3.34L37.58 3.34Q38.28 3.99 38.28 5.04L38.28 5.04L38.28 5.04Q38.28 5.84 37.86 6.43L37.86 6.43L37.86 6.43Q37.45 7.03 36.81 7.25L36.81 7.25L36.81 7.31L36.81 7.31Q37.55 7.53 38.02 8.19L38.02 8.19L38.02 8.19Q38.50 8.85 38.50 9.74L38.50 9.74L38.50 9.74Q38.50 10.53 38.14 11.10L38.14 11.10L38.14 11.10Q37.77 11.68 37.16 11.98L37.16 11.98L37.16 11.98Q36.54 12.29 35.80 12.29L35.80 12.29L32.16 12.29ZM33.39 6.82L35.43 6.82L35.43 6.82Q36.12 6.82 36.55 6.38L36.55 6.38L36.55 6.38Q36.99 5.94 36.99 5.31L36.99 5.31L36.99 5.31Q36.99 4.56 36.60 4.19L36.60 4.19L36.60 4.19Q36.20 3.81 35.52 3.81L35.52 3.81L33.39 3.81L33.39 6.82ZM33.39 11.17L35.63 11.17L35.63 11.17Q36.33 11.17 36.77 10.75L36.77 10.75L36.77 10.75Q37.21 10.33 37.21 9.58L37.21 9.58L37.21 9.58Q37.21 8.90 36.75 8.42L36.75 8.42L36.75 8.42Q36.29 7.94 35.55 7.94L35.55 7.94L33.39 7.94L33.39 11.17ZM41.31 12.46L41.31 12.46Q40.56 12.46 39.97 12.01L39.97 12.01L39.97 12.01Q39.38 11.56 39.38 10.39L39.38 10.39L39.38 10.39Q39.38 8.97 40.34 8.45L40.34 8.45L40.34 8.45Q41.30 7.92 43.11 7.92L43.11 7.92L43.11 6.97L43.11 6.97Q43.11 6.40 42.85 6.09L42.85 6.09L42.85 6.09Q42.60 5.78 41.94 5.78L41.94 5.78L41.94 5.78Q41.34 5.78 41.08 6.12L41.08 6.12L41.08 6.12Q40.81 6.45 40.81 6.94L40.81 6.94L40.81 7.11L39.68 7.11L39.68 7.11Q39.66 7.03 39.66 6.80L39.66 6.80L39.66 6.80Q39.66 5.82 40.31 5.29L40.31 5.29L40.31 5.29Q40.95 4.76 42.03 4.76L42.03 4.76L42.03 4.76Q43.13 4.76 43.69 5.29L43.69 5.29L43.69 5.29Q44.25 5.82 44.25 6.82L44.25 6.82L44.25 10.95L44.25 10.95Q44.25 11.19 44.37 11.31L44.37 11.31L44.37 11.31Q44.48 11.44 44.65 11.44L44.65 11.44L45.09 11.44L45.09 12.24L45.09 12.24Q44.79 12.40 44.34 12.40L44.34 12.40L44.34 12.40Q43.89 12.40 43.59 12.16L43.59 12.16L43.59 12.16Q43.29 11.91 43.18 11.49L43.18 11.49L43.11 11.49L43.11 11.49Q42.83 11.96 42.36 12.21L42.36 12.21L42.36 12.21Q41.89 12.46 41.31 12.46L41.31 12.46ZM41.58 11.44L41.58 11.44Q41.96 11.44 42.31 11.23L42.31 11.23L42.31 11.23Q42.66 11.02 42.88 10.61L42.88 10.61L42.88 10.61Q43.11 10.19 43.11 9.62L43.11 9.62L43.11 8.95L43.11 8.95Q41.85 8.95 41.22 9.23L41.22 9.23L41.22 9.23Q40.59 9.52 40.59 10.32L40.59 10.32L40.59 10.32Q40.59 10.92 40.83 11.18L40.83 11.18L40.83 11.18Q41.08 11.44 41.58 11.44L41.58 11.44ZM46.13 12.29L46.13 4.93L47.00 4.93L47.15 5.89L47.24 5.89L47.24 5.89Q47.39 5.40 47.70 5.08L47.70 5.08L47.70 5.08Q48.01 4.76 48.48 4.76L48.48 4.76L48.48 4.76Q48.68 4.76 48.83 4.81L48.83 4.81L48.83 4.81Q48.99 4.86 49.03 4.87L49.03 4.87L49.03 6.06L48.65 6.06L48.65 6.06Q48.05 6.06 47.66 6.47L47.66 6.47L47.66 6.47Q47.28 6.89 47.28 7.80L47.28 7.80L47.28 12.29L46.13 12.29ZM49.88 12.29L49.88 5.95L49.24 5.95L49.24 4.93L49.88 4.93L49.88 3.75L49.88 3.75Q49.88 3.02 50.23 2.54L50.23 2.54L50.23 2.54Q50.57 2.06 51.34 2.06L51.34 2.06L51.34 2.06Q51.83 2.06 52.30 2.23L52.30 2.23L52.30 3.02L51.69 3.02L51.69 3.02Q51.03 3.02 51.03 3.70L51.03 3.70L51.03 4.93L52.30 4.93L52.30 5.95L51.03 5.95L51.03 12.29L49.88 12.29ZM53.00 3.54L53.00 2.17L54.15 2.17L54.15 3.54L53.00 3.54ZM53.00 12.29L53.00 4.93L54.15 4.93L54.15 12.29L53.00 12.29ZM58.23 12.46L58.23 12.46Q56.83 12.46 56.13 11.54L56.13 11.54L56.13 11.54Q55.44 10.63 55.44 8.61L55.44 8.61L55.44 8.61Q55.44 6.64 56.13 5.70L56.13 5.70L56.13 5.70Q56.81 4.76 58.21 4.76L58.21 4.76L58.21 4.76Q59.44 4.76 60.04 5.58L60.04 5.58L60.04 5.58Q60.63 6.40 60.63 8.22L60.63 8.22L60.63 8.95L56.64 8.95L56.64 8.95Q56.66 10.23 57.04 10.84L57.04 10.84L57.04 10.84Q57.43 11.44 58.25 11.44L58.25 11.44L58.25 11.44Q58.81 11.44 59.16 10.99L59.16 10.99L59.16 10.99Q59.50 10.54 59.50 9.79L59.50 9.79L60.63 9.79L60.63 9.79Q60.63 11.02 59.97 11.74L59.97 11.74L59.97 11.74Q59.30 12.46 58.23 12.46L58.23 12.46ZM56.66 7.92L59.43 7.92L59.43 7.92Q59.43 6.87 59.12 6.33L59.12 6.33L59.12 6.33Q58.81 5.78 58.21 5.78L58.21 5.78L58.21 5.78Q57.47 5.78 57.10 6.31L57.10 6.31L57.10 6.31Q56.73 6.83 56.66 7.92L56.66 7.92ZM61.94 12.29L61.94 2.17L63.08 2.17L63.08 12.29L61.94 12.29ZM66.63 12.46L66.63 12.46Q65.53 12.46 64.94 11.51L64.94 11.51L64.94 11.51Q64.34 10.56 64.34 8.60L64.34 8.60L64.34 8.60Q64.34 6.69 64.95 5.73L64.95 5.73L64.95 5.73Q65.56 4.76 66.54 4.76L66.54 4.76L66.54 4.76Q67.09 4.76 67.51 4.99L67.51 4.99L67.51 4.99Q67.93 5.22 68.11 5.63L68.11 5.63L68.18 5.63L68.18 2.17L69.33 2.17L69.33 12.29L68.46 12.29L68.31 11.44L68.24 11.44L68.24 11.44Q67.97 11.94 67.55 12.20L67.55 12.20L67.55 12.20Q67.13 12.46 66.63 12.46L66.63 12.46ZM66.86 11.44L66.86 11.44Q68.18 11.44 68.18 8.88L68.18 8.88L68.18 8.40L68.18 8.40Q68.18 5.78 66.86 5.78L66.86 5.78L66.86 5.78Q66.19 5.78 65.87 6.38L65.87 6.38L65.87 6.38Q65.55 6.99 65.55 8.34L65.55 8.34L65.55 8.88L65.55 8.88Q65.55 10.23 65.87 10.84L65.87 10.84L65.87 10.84Q66.19 11.44 66.86 11.44L66.86 11.44Z"></path></g><!----><!----></svg>