<svg data-v-423bf9ae="" xmlns="http://www.w3.org/2000/svg" viewBox="0 0 588.6018583605207 163" class="iconAbove"><!----><defs data-v-423bf9ae=""><linearGradient data-v-423bf9ae="" gradientTransform="rotate(25)" id="52e57138-5a60-4223-a407-8dcbe09eaa6b" x1="0%" y1="0%" x2="100%" y2="0%"><stop data-v-423bf9ae="" offset="0%" style="stop-color: rgb(103, 99, 93); stop-opacity: 1;"></stop><stop data-v-423bf9ae="" offset="100%" style="stop-color: rgb(255, 214, 173); stop-opacity: 1;"></stop></linearGradient></defs><!----><g data-v-423bf9ae="" id="0fce4b39-8ed5-4d6b-b249-0142300a8592" fill="#ffffff" transform="matrix(4.559270569581267,0,0,4.559270569581267,-1.55015894543601,100.94832932445289)"><path d="M0.34 10.50L1.40 10.50L2.10 8.01L6.24 8.01L6.94 10.50L8.01 10.50L5.35 0.81L3.00 0.81ZM3.81 1.74L4.54 1.74L6.01 7.04L2.34 7.04ZM13.72 3.50L13.72 9.18C13.72 9.18 12.84 9.70 11.80 9.70C10.50 9.70 10.33 9.07 10.33 7.14L10.33 3.50L9.28 3.50L9.28 7.15C9.28 9.73 9.69 10.64 11.65 10.64C12.67 10.64 13.72 10.01 13.72 10.01L13.72 10.50L14.77 10.50L14.77 3.50ZM16.79 10.50L17.84 10.50L17.84 5.36C17.84 5.36 19.07 4.68 20.38 4.41L20.38 3.35C19.04 3.61 17.82 4.45 17.82 4.45L17.82 3.50L16.79 3.50ZM24.18 3.36C21.97 3.36 21.18 4.51 21.18 6.92C21.18 9.46 21.83 10.64 24.18 10.64C26.54 10.64 27.17 9.46 27.17 6.92C27.17 4.51 26.40 3.36 24.18 3.36ZM24.18 9.73C22.53 9.73 22.26 8.90 22.26 6.92C22.26 4.97 22.69 4.27 24.18 4.27C25.68 4.27 26.10 4.97 26.10 6.92C26.10 8.90 25.84 9.73 24.18 9.73ZM28.88 10.50L29.93 10.50L29.93 5.36C29.93 5.36 31.16 4.68 32.48 4.41L32.48 3.35C31.14 3.61 29.92 4.45 29.92 4.45L29.92 3.50L28.88 3.50ZM38.67 5.61C38.67 4.09 38.00 3.36 36.41 3.36C35.21 3.36 33.67 3.67 33.67 3.67L33.71 4.47C33.71 4.47 35.38 4.28 36.36 4.28C37.20 4.28 37.62 4.63 37.62 5.61L37.62 6.22L35.42 6.43C33.98 6.57 33.28 7.15 33.28 8.50C33.28 9.91 33.98 10.64 35.25 10.64C36.51 10.64 37.77 10.08 37.77 10.08C38.19 10.50 38.70 10.64 39.44 10.64L39.48 9.81C39.03 9.76 38.70 9.60 38.67 9.20ZM37.62 7.01L37.62 9.32C37.62 9.32 36.46 9.76 35.42 9.76C34.71 9.76 34.36 9.28 34.36 8.47C34.36 7.70 34.69 7.29 35.55 7.21ZM49.34 10.50L49.34 9.53L45.08 9.53L45.08 0.81L44.00 0.81L44.00 10.50ZM54.82 3.50L54.82 9.18C54.82 9.18 53.94 9.70 52.91 9.70C51.60 9.70 51.44 9.07 51.44 7.14L51.44 3.50L50.39 3.50L50.39 7.15C50.39 9.73 50.79 10.64 52.75 10.64C53.77 10.64 54.82 10.01 54.82 10.01L54.82 10.50L55.87 10.50L55.87 3.50ZM57.19 3.50L59.39 7L57.19 10.50L58.34 10.50L60.05 7.77L61.74 10.50L62.89 10.50L60.68 6.97L62.90 3.50L61.75 3.50L60.05 6.24L58.34 3.50ZM68.59 3.50L68.59 9.18C68.59 9.18 67.70 9.70 66.67 9.70C65.37 9.70 65.20 9.07 65.20 7.14L65.20 3.50L64.15 3.50L64.15 7.15C64.15 9.73 64.55 10.64 66.51 10.64C67.54 10.64 68.59 10.01 68.59 10.01L68.59 10.50L69.64 10.50L69.64 3.50ZM71.65 10.50L72.70 10.50L72.70 5.36C72.70 5.36 73.93 4.68 75.25 4.41L75.25 3.35C73.91 3.61 72.69 4.45 72.69 4.45L72.69 3.50L71.65 3.50ZM75.84 3.50L77.83 10.50L78.86 10.50L77.95 13.61L79.00 13.61L81.91 3.50L80.86 3.50L79.10 9.59L78.64 9.59L76.89 3.50ZM90.34 6.79L92.09 10.50L93.28 10.50L91.42 6.57C92.64 6.17 93.20 5.18 93.20 3.75C93.20 1.71 92.13 0.81 90.10 0.81L86.52 0.81L86.52 10.50L87.60 10.50L87.60 6.79ZM92.09 3.75C92.09 4.97 91.57 5.84 90.12 5.84L87.60 5.84L87.60 1.76L90.10 1.76C91.46 1.76 92.09 2.42 92.09 3.75ZM97.43 9.72C96.05 9.72 95.59 8.93 95.59 7.43L100.21 7.43L100.27 6.64C100.27 4.34 99.32 3.36 97.45 3.36C95.68 3.36 94.53 4.38 94.53 7.04C94.53 9.42 95.21 10.64 97.30 10.64C98.43 10.64 100.03 10.42 100.03 10.42L100.00 9.59C100.00 9.59 98.48 9.72 97.43 9.72ZM95.58 6.59C95.59 4.90 96.26 4.24 97.45 4.24C98.69 4.24 99.22 4.86 99.22 6.59ZM102.96 10.50L102.96 4.82C102.96 4.82 103.92 4.30 104.93 4.30C106.23 4.30 106.44 4.98 106.44 6.83L106.44 10.50L107.48 10.50L107.48 6.80C107.48 4.31 107.04 3.36 105.11 3.36C104.08 3.36 102.94 3.99 102.94 3.99L102.94 3.50L101.91 3.50L101.91 10.50ZM113.01 4.41L113.01 3.50L110.78 3.50L110.78 1.36L109.75 1.36L109.75 3.50L108.75 3.50L108.75 4.41L109.75 4.41L109.75 8.09C109.75 10.11 110.24 10.65 111.68 10.65C112.17 10.65 113.11 10.50 113.11 10.50L113.04 9.63C113.04 9.63 112.18 9.72 111.79 9.72C110.88 9.72 110.78 9.28 110.78 7.76L110.78 4.41ZM119.24 5.61C119.24 4.09 118.57 3.36 116.98 3.36C115.78 3.36 114.24 3.67 114.24 3.67L114.28 4.47C114.28 4.47 115.95 4.28 116.93 4.28C117.77 4.28 118.19 4.63 118.19 5.61L118.19 6.22L115.99 6.43C114.55 6.57 113.85 7.15 113.85 8.50C113.85 9.91 114.55 10.64 115.82 10.64C117.08 10.64 118.34 10.08 118.34 10.08C118.76 10.50 119.27 10.64 120.01 10.64L120.05 9.81C119.60 9.76 119.27 9.60 119.24 9.20ZM118.19 7.01L118.19 9.32C118.19 9.32 117.03 9.76 115.99 9.76C115.28 9.76 114.93 9.28 114.93 8.47C114.93 7.70 115.26 7.29 116.12 7.21ZM121.39 10.50L122.44 10.50L122.44 0.45L121.39 0.45ZM129.22 3.63C129.22 3.63 127.74 3.36 126.69 3.36C125.41 3.36 124.17 3.86 124.17 5.40C124.17 6.80 124.92 7.10 126.50 7.35C128.03 7.59 128.39 7.77 128.39 8.50C128.39 9.45 127.78 9.70 126.63 9.70C125.92 9.70 124.32 9.46 124.32 9.46L124.26 10.37C124.26 10.37 125.83 10.64 126.73 10.64C128.41 10.64 129.44 10.09 129.44 8.46C129.44 7.10 128.79 6.75 127.04 6.45C125.55 6.20 125.22 6.02 125.22 5.36C125.22 4.54 125.87 4.30 126.74 4.30C127.64 4.30 129.19 4.52 129.19 4.52Z"></path></g><!----><g data-v-423bf9ae="" id="fa13d976-e794-4bee-a714-5c232ca902df" transform="matrix(1.2318978380947339,0,0,1.2318978380947339,233.61810497889923,-16.123895711512276)" stroke="none" fill="#ffffff"><path d="M28.326 24.005l19.713 37.616-8.966-30.628 10.861 9.524-.444 21.276 5.02-16.208 4.697 6.683-9.913 14.142L5.213 13.471zM92.98 77.008l-43.194-9.453-12.085-1.145-5.705 2.588.854 3.939.59-2.1 7.616.327 21.432 7.851 11.39 7.514-1.345-5.311 13.26 2.324-6.597-5.907zM94.787 33.755l-3.908 11.536-36.235 19.121L87.106 52.61l-5.416 7.799-27.046 5.218 21.286.491-8.078 3.519-18.558-3.227z"></path></g><!----></svg>